<svg width="42" height="42" fill="none" xmlns="http://www.w3.org/2000/svg" class="" viewBox="0 0 45 45"><title>Evacuation Warning</title><circle cx="22.5" cy="22.5" r="22.5" fill="#000"></circle><circle cx="30.5" cy="30.5" r="6.5" fill="#fff"></circle><rect x="29.571" y="25.857" width="1.811" height="7.243" rx="0.905" fill="#000"></rect><circle cx="30.477" cy="34.888" r="0.905" fill="#000"></circle><path d="M19.287 12.802c.682.036 3.744 1.856 4.138 2.613.951 1.014 1.318 2.148 1.626 3.1.178.553.314.968.446.956.654-.062 3.968-.927 3.976-.929 1.496-.373 2.065 1.9.569 2.274-.01.002-3.334.89-4.334.983-2.483.234-2.494-1.735-3.199-3.457-.803 1.263-1.779 3.016-2.654 4.159 1.73 1.413 3.833 2.289 3.234 4.686-.327 1.31-1.99 6.089-1.994 6.102-.5 1.458-2.72.7-2.22-.762.005-.013 1.646-4.733 1.94-5.908.119-.476-3.018-2.782-3.601-3.274-.474-.347-.573-.386-.865.116-1.363 2.337-1.469 5.69-5.087 5.69-2.101 0-5.31-.815-5.319-.818-1.489-.39-.895-2.657.596-2.265.008.002 2.89.735 4.723.735.752 0 .967-.53 1.912-2.855 1.673-4.115 1.883-4.597 4.61-8.883-1.636-.077-2.24-.343-3.096 1.085-1.065 1.775-1.485 2.74-1.486 2.744-.687 1.374-2.779.33-2.091-1.046 0-.002.46-1.051 1.568-2.899 1.703-2.839 3.6-2.32 6.608-2.147zm5.07-4.875a2.873 2.873 0 110 5.745 2.873 2.873 0 010-5.745z" fill="#fff"></path></svg>