<svg width="42" height="42" fill="none" xmlns="http://www.w3.org/2000/svg" class="" viewBox="0 0 45 45"><title>Minor Flood Bulletin</title><circle cx="22.5" cy="22.5" r="22.5" fill="#000"></circle><path d="M14 15.02V9.492c0-.231.19-.42.425-.42h2.55c.235 0 .425.189.425.42v2.89l4.574-3.55a.859.859 0 011.05 0l11.565 8.972a.416.416 0 01.072.59l-.525.66a.429.429 0 01-.597.07l-11.04-8.564-11.04 8.564a.429.429 0 01-.596-.07l-.525-.66a.416.416 0 01.071-.59L14 15.02zm-1.7 5.053l10.2-7.912 10.199 7.912v8.686c-2.924.848-5.989.512-9.294-1.024-3.812-1.771-7.538-2.292-11.104-1.552v-6.11zM9.104 34.205l-.4-.741a.417.417 0 01.174-.568l.009-.004c.03-.016.058-.029.083-.041 4.359-2.126 9.014-2.047 13.891.219 4.367 2.029 8.435 2.123 12.277.3l.19-.094a.428.428 0 01.567.177l.4.741a.417.417 0 01-.175.568l-.008.005a4.042 4.042 0 01-.065.031c-4.364 2.135-9.026 2.06-13.91-.21-4.386-2.037-8.47-2.124-12.325-.276l-.142.07a.428.428 0 01-.567-.177zm0-3.776l-.4-.741a.417.417 0 01.175-.568l.008-.004.161-.08c4.337-2.086 8.966-1.995 13.813.258 4.373 2.031 8.445 2.123 12.29.293l.178-.087a.428.428 0 01.566.177l.4.74a.417.417 0 01-.175.568l-.008.004c-.09.046-.167.083-.23.113-4.316 2.053-8.922 1.95-13.744-.29-4.387-2.038-8.47-2.124-12.327-.276l-.14.07a.428.428 0 01-.567-.178z" fill="#fff"></path></svg>